<?xml version="1.0" encoding="UTF-8" standalone="no"?><!DOCTYPE svg PUBLIC "-//W3C//DTD SVG 1.1//EN" "http://www.w3.org/Graphics/SVG/1.1/DTD/svg11.dtd"><svg width="100%" height="100%" viewBox="0 0 8534 8534" version="1.1" xmlns="http://www.w3.org/2000/svg" xmlns:xlink="http://www.w3.org/1999/xlink" xml:space="preserve" style="fill-rule:evenodd;clip-rule:evenodd;stroke-linejoin:round;stroke-miterlimit:1.41421;"><path d="M4266.67,0l-4266.67,4266.67l4266.67,4266.67l4266.67,-4266.67l-4266.67,-4266.67Zm585.416,4822.76c-68.063,78.2 -152.056,140.109 -251.979,185.726c-99.922,45.617 -215.051,68.425 -345.385,68.425c-118.748,0 -228.446,-19.55 -329.093,-58.65c-100.647,-39.1 -187.898,-94.492 -261.754,-166.176c-73.856,-71.683 -131.782,-157.487 -173.778,-257.409c-41.997,-99.923 -62.995,-209.983 -62.995,-330.18c0,-123.093 21.36,-234.601 64.081,-334.523c42.72,-99.923 101.733,-185.002 177.037,-255.238c75.304,-70.235 163.641,-124.179 265.012,-161.831c101.371,-37.652 210.707,-56.478 328.007,-56.478c108.612,0 215.413,19.188 320.404,57.564c104.992,38.376 190.071,94.492 255.238,168.348l-251.979,251.979c-34.756,-47.789 -80.373,-83.269 -136.851,-106.439c-56.478,-23.171 -114.404,-34.756 -173.779,-34.756c-65.166,0 -124.903,11.947 -179.209,35.842c-54.305,23.894 -101.008,56.84 -140.109,98.836c-39.1,41.997 -69.511,91.596 -91.233,148.798c-21.723,57.202 -32.584,119.835 -32.584,187.898c0,69.512 10.861,133.231 32.584,191.157c21.722,57.926 51.771,107.525 90.147,148.798c38.376,41.272 84.355,73.494 137.937,96.664c53.582,23.171 112.232,34.756 175.951,34.756c73.856,0 138.299,-14.482 193.328,-43.445c55.03,-28.963 99.199,-66.615 132.507,-112.956l258.495,243.29Zm1915.91,212.879l0,-1537.94l-536.541,0l-334.524,986.193l-8.689,0l-349.729,-986.193l-527.853,0l0,1537.94l349.729,0l-8.688,-1088.29l6.516,0l388.83,1088.29l260.668,0l399.69,-1088.29l6.517,0l-8.689,1088.29l362.763,0Zm-3358.27,0l-638.636,-1537.94l-360.591,0l-645.153,1537.94l404.036,0l112.956,-301.94l595.191,0l119.473,301.94l412.724,0Zm-825.448,-1127.39l-195.501,527.853l386.657,0l-191.156,-527.853Z" style="fill:#fff;"/></svg>